<?xml version="1.0" encoding="UTF-8"?>
<svg id="_레이어_2" data-name="레이어 2" xmlns="http://www.w3.org/2000/svg" xmlns:xlink="http://www.w3.org/1999/xlink" viewBox="0 0 2904.95 2427.52">
  <defs>
    <style>
      .cls-1 {
        mask: url(#mask);
      }

      .cls-2 {
        fill: #fff;
      }

      .cls-2, .cls-3 {
        stroke-width: 0px;
      }

      .cls-3 {
        fill: #012dd8;
      }
    </style>
    <mask id="mask" x="562.7" y="85.27" width="3257.91" height="3070.98" maskUnits="userSpaceOnUse">
      <path class="cls-2" d="M1829.63,2814.65c455.46,455.46,1193.91,455.46,1649.38,0,455.46-455.46,455.46-1193.91,0-1649.38-455.46-455.46-1193.91-455.46-1649.38,0-455.46,455.46-455.46,1193.91,0,1649.38ZM3064.51,1579.78c226.54,226.54,226.54,593.84,0,820.38-226.54,226.54-593.84,226.54-820.38,0-226.54-226.54-226.54-593.83,0-820.38,226.54-226.54,593.84-226.54,820.38,0Z"/>
    </mask>
  </defs>
  <g id="Layer_1" data-name="Layer 1">
    <g>
      <g class="cls-1">
        <g>
          <polygon class="cls-3" points="2855.82 2427.52 2904.95 2378.39 2904.95 2369.02 2846.45 2427.52 2855.82 2427.52"/>
          <polygon class="cls-3" points="2728.94 2427.52 2904.95 2251.51 2904.95 2242.15 2719.58 2427.52 2728.94 2427.52"/>
          <polygon class="cls-3" points="2602.07 2427.52 2904.95 2124.64 2904.95 2115.27 2592.7 2427.52 2602.07 2427.52"/>
          <polygon class="cls-3" points="2475.19 2427.52 2904.95 1997.76 2904.95 1988.4 2465.83 2427.52 2475.19 2427.52"/>
          <polygon class="cls-3" points="2348.32 2427.52 2904.95 1870.89 2904.95 1861.52 2338.95 2427.52 2348.32 2427.52"/>
          <polygon class="cls-3" points="2221.44 2427.52 2904.95 1744.01 2904.95 1734.65 2212.08 2427.52 2221.44 2427.52"/>
          <polygon class="cls-3" points="2094.57 2427.52 2904.95 1617.14 2904.95 1607.77 2085.2 2427.52 2094.57 2427.52"/>
          <polygon class="cls-3" points="1967.69 2427.52 2904.95 1490.26 2904.95 1480.9 1958.33 2427.52 1967.69 2427.52"/>
          <polygon class="cls-3" points="1840.81 2427.52 2904.95 1363.38 2904.95 1354.02 1831.45 2427.52 1840.81 2427.52"/>
          <polygon class="cls-3" points="1713.94 2427.52 2904.95 1236.51 2904.95 1227.15 1704.58 2427.52 1713.94 2427.52"/>
          <polygon class="cls-3" points="1587.06 2427.52 2904.95 1109.63 2904.95 1100.27 1577.7 2427.52 1587.06 2427.52"/>
          <polygon class="cls-3" points="1460.19 2427.52 2904.95 982.76 2904.95 973.4 1450.83 2427.52 1460.19 2427.52"/>
          <polygon class="cls-3" points="1333.31 2427.52 2904.95 855.88 2904.95 846.52 1323.95 2427.52 1333.31 2427.52"/>
          <polygon class="cls-3" points="1206.44 2427.52 2904.95 729.01 2904.95 719.65 1197.08 2427.52 1206.44 2427.52"/>
          <polygon class="cls-3" points="1079.56 2427.52 2904.95 602.13 2904.95 592.77 1070.2 2427.52 1079.56 2427.52"/>
          <polygon class="cls-3" points="952.69 2427.52 2904.95 475.26 2904.95 465.89 943.32 2427.52 952.69 2427.52"/>
          <polygon class="cls-3" points="825.81 2427.52 2904.95 348.38 2904.95 339.02 816.45 2427.52 825.81 2427.52"/>
          <polygon class="cls-3" points="698.94 2427.52 2904.95 221.51 2904.95 212.15 689.57 2427.52 698.94 2427.52"/>
          <polygon class="cls-3" points="572.06 2427.52 2904.95 94.63 2904.95 85.27 562.7 2427.52 572.06 2427.52"/>
        </g>
      </g>
      <path class="cls-3" d="M1078.34,1899.09h116.2l-58.1,100.63-58.1-100.63ZM1187.61,1903.09h-102.34l51.17,88.63,51.17-88.63Z"/>
      <polygon class="cls-3" points="1923.06 489.82 2027.8 541.73 2026.03 545.32 1923.06 494.28 1819.2 545.76 1715.34 494.28 1611.48 545.76 1506.72 493.84 1508.5 490.26 1611.48 541.29 1715.34 489.82 1819.2 541.29 1923.06 489.82"/>
      <g>
        <circle class="cls-3" cx="752.67" cy="2239.65" r="7.31" transform="translate(-1363.22 1188.2) rotate(-45)"/>
        <circle class="cls-3" cx="752.67" cy="2165.61" r="7.31" transform="translate(-1536.12 2032.24) rotate(-67.5)"/>
        <path class="cls-3" d="M678.14,2232.35c-4.04,0-7.31,3.27-7.31,7.31s3.27,7.31,7.31,7.31,7.31-3.27,7.31-7.31-3.27-7.31-7.31-7.31Z"/>
        <path class="cls-3" d="M678.14,2158.3c-4.04,0-7.31,3.27-7.31,7.31s3.27,7.31,7.31,7.31,7.31-3.27,7.31-7.31-3.27-7.31-7.31-7.31Z"/>
        <circle class="cls-3" cx="603.6" cy="2239.65" r="7.31" transform="translate(-269.13 90.53) rotate(-7.02)"/>
        <circle class="cls-3" cx="603.6" cy="2165.61" r="7.31" transform="translate(-339.1 124.65) rotate(-9.22)"/>
        <circle class="cls-3" cx="529.06" cy="2239.65" r="7.31" transform="translate(-500.41 181.47) rotate(-13.28)"/>
        <circle class="cls-3" cx="529.06" cy="2165.61" r="7.31" transform="translate(-340.06 112.71) rotate(-9.22)"/>
        <circle class="cls-3" cx="454.53" cy="2239.65" r="7.31" transform="translate(-502.41 164.34) rotate(-13.28)"/>
        <circle class="cls-3" cx="454.53" cy="2165.61" r="7.31" transform="translate(-341.02 100.77) rotate(-9.22)"/>
        <circle class="cls-3" cx="379.99" cy="2239.65" r="7.31" transform="translate(-504.4 147.22) rotate(-13.28)"/>
        <circle class="cls-3" cx="379.99" cy="2165.61" r="7.31" transform="translate(-341.98 88.83) rotate(-9.22)"/>
        <circle class="cls-3" cx="305.45" cy="2239.65" r="7.31" transform="translate(-506.39 130.09) rotate(-13.28)"/>
        <circle class="cls-3" cx="305.45" cy="2165.61" r="7.31" transform="translate(-342.95 76.89) rotate(-9.22)"/>
        <circle class="cls-3" cx="230.92" cy="2239.65" r="7.31" transform="translate(-1516.04 819.26) rotate(-45)"/>
        <circle class="cls-3" cx="230.92" cy="2165.61" r="7.31" transform="translate(-1858.21 1550.2) rotate(-67.5)"/>
        <path class="cls-3" d="M156.38,2232.35c-4.04,0-7.31,3.27-7.31,7.31s3.27,7.31,7.31,7.31,7.31-3.27,7.31-7.31-3.27-7.31-7.31-7.31Z"/>
        <path class="cls-3" d="M156.38,2158.3c-4.04,0-7.31,3.27-7.31,7.31s3.27,7.31,7.31,7.31,7.31-3.27,7.31-7.31-3.27-7.31-7.31-7.31Z"/>
        <path class="cls-3" d="M81.84,2158.3c-4.04,0-7.31,3.27-7.31,7.31s3.27,7.31,7.31,7.31,7.31-3.27,7.31-7.31-3.27-7.31-7.31-7.31Z"/>
        <circle class="cls-3" cx="7.31" cy="2165.61" r="7.31"/>
      </g>
      <g>
        <circle class="cls-3" cx="2742.73" cy="261.94" r="8.46"/>
        <circle class="cls-3" cx="2742.73" cy="177.45" r="8.46" transform="translate(2546.34 2918.89) rotate(-89.6)"/>
        <circle class="cls-3" cx="2742.73" cy="92.96" r="8.46"/>
        <circle class="cls-3" cx="2742.73" cy="8.46" r="8.46"/>
      </g>
      <g>
        <path class="cls-3" d="M2635.74,1896.85h-14.87v14.56h-8.56v-14.56h-14.87v-9.19h14.87v-14.56h8.56v14.56h14.87v9.19Z"/>
        <path class="cls-3" d="M2547.99,1984.61h-14.87v14.56h-8.56v-14.56h-14.87v-9.19h14.87v-14.56h8.56v14.56h14.87v9.19Z"/>
        <path class="cls-3" d="M2460.23,2072.36h-14.87v14.56h-8.56v-14.56h-14.87v-9.19h14.87v-14.56h8.56v14.56h14.87v9.19Z"/>
      </g>
      <path class="cls-3" d="M1600.8,981.6h-14.87v14.56h-8.56v-14.56h-14.87v-9.19h14.87v-14.56h8.56v14.56h14.87v9.19Z"/>
    </g>
  </g>
</svg>